{
  "source": "C:\\Users\\Peter\\Desktop\\stuff\\MIUN\\quantitative_research\\video_compression\\videos\\BVI-HD\\BVI-HD_CDVL_videos\\ORIG\\MartialArts_1920x1080_60fps.mp4",
  "output": "C:\\Users\\Peter\\Desktop\\stuff\\MIUN\\quantitative_research\\video_compression\\compressed_videos\\BVI-HD\\h264\\1.5\\MartialArts_1920x1080_60fps_h264.mp4",
  "codec": "h264",
  "ok": "Input #0, mov,mp4,m4a,3gp,3g2,mj2, from 'C:\\Users\\Peter\\Desktop\\stuff\\MIUN\\quantitative_research\\video_compression\\videos\\BVI-HD\\BVI-HD_CDVL_videos\\ORIG\\MartialArts_1920x1080_60fps.mp4':\n  Metadata:\n    major_brand     : isom\n    minor_version   : 512\n    compatible_brands: isomiso2avc1mp41\n    encoder         : Lavf54.28.101\n  Duration: 00:00:05.00, start: 0.000000, bitrate: 120609 kb/s\n  Stream #0:0[0x1](und): Video: h264 (High 4:4:4 Predictive) (avc1 / 0x31637661), yuv420p(progressive), 1920x1080, 120605 kb/s, 60 fps, 60 tbr, 60 tbn (default)\n    Metadata:\n      handler_name    : VideoHandler\n      vendor_id       : [0][0][0][0]\n[out#0/mp4 @ 0000022849a29b40] Codec AVOption b:a (set bitrate (in bits/s)) has not been used for any stream. The most likely reason is either wrong type (e.g. a video option with no video streams) or that it is a private option of some decoder which was not actually used for any stream.\nStream mapping:\n  Stream #0:0 -> #0:0 (h264 (native) -> h264 (libx264))\nPress [q] to stop, [?] for help\n[libx264 @ 000002284a360980] using cpu capabilities: MMX2 SSE2Fast SSSE3 SSE4.2 AVX FMA3 BMI2 AVX2\n[libx264 @ 000002284a360980] profile High, level 5.0, 4:2:0, 8-bit\n[libx264 @ 000002284a360980] 264 - core 165 r3222 b35605a - H.264/MPEG-4 AVC codec - Copyleft 2003-2025 - http://www.videolan.org/x264.html - options: cabac=1 ref=5 deblock=1:0:0 analyse=0x3:0x113 me=hex subme=8 psy=1 psy_rd=1.00:0.00 mixed_ref=1 me_range=16 chroma_me=1 trellis=2 8x8dct=1 cqm=0 deadzone=21,11 fast_pskip=1 chroma_qp_offset=-2 threads=18 lookahead_threads=3 sliced_threads=0 nr=0 decimate=1 interlaced=0 bluray_compat=0 constrained_intra=0 bframes=3 b_pyramid=2 b_adapt=1 b_bias=0 direct=3 weightb=1 open_gop=0 weightp=2 keyint=250 keyint_min=25 scenecut=40 intra_refresh=0 rc_lookahead=50 rc=cbr mbtree=1 bitrate=1500 ratetol=1.0 qcomp=0.60 qpmin=0 qpmax=69 qpstep=4 vbv_maxrate=1500 vbv_bufsize=1500 nal_hrd=none filler=0 ip_ratio=1.40 aq=1:1.00\nOutput #0, mp4, to 'C:\\Users\\Peter\\Desktop\\stuff\\MIUN\\quantitative_research\\video_compression\\compressed_videos\\BVI-HD\\h264\\1.5\\MartialArts_1920x1080_60fps_h264.mp4':\n  Metadata:\n    major_brand     : isom\n    minor_version   : 512\n    compatible_brands: isomiso2avc1mp41\n    encoder         : Lavf62.3.100\n  Stream #0:0(und): Video: h264 (avc1 / 0x31637661), yuv420p(tv, progressive), 1920x1080, q=2-31, 1500 kb/s, 60 fps, 15360 tbn (default)\n    Metadata:\n      encoder         : Lavc62.11.100 libx264\n      handler_name    : VideoHandler\n      vendor_id       : [0][0][0][0]\n    Side data:\n      cpb: bitrate max/min/avg: 1500000/0/1500000 buffer size: 1500000 vbv_delay: N/A\nframe=    0 fps=0.0 q=0.0 size=       0KiB time=N/A bitrate=N/A speed=N/A elapsed=0:00:00.51    \nframe=    8 fps=7.8 q=40.0 size=       0KiB time=00:00:00.10 bitrate=   3.8kbits/s speed=0.0974x elapsed=0:00:01.02    \nframe=   52 fps= 33 q=37.0 size=       0KiB time=00:00:00.75 bitrate=   0.5kbits/s speed=0.482x elapsed=0:00:01.55    \nframe=   92 fps= 44 q=38.0 size=       0KiB time=00:00:01.50 bitrate=   0.3kbits/s speed=0.71x elapsed=0:00:02.11    \nframe=  136 fps= 52 q=38.0 size=     256KiB time=00:00:02.23 bitrate= 939.2kbits/s speed=0.849x elapsed=0:00:02.63    \nframe=  176 fps= 55 q=38.0 size=     256KiB time=00:00:02.90 bitrate= 723.3kbits/s speed=0.911x elapsed=0:00:03.18    \nframe=  216 fps= 58 q=39.0 size=     512KiB time=00:00:03.48 bitrate=1204.2kbits/s speed=0.931x elapsed=0:00:03.73    \nframe=  265 fps= 61 q=39.0 size=     768KiB time=00:00:04.36 bitrate=1440.9kbits/s speed=   1x elapsed=0:00:04.34    \n[mp4 @ 0000022849a3a600] Starting second pass: moving the moov atom to the beginning of the file\n[out#0/mp4 @ 0000022849a29b40] video:884KiB audio:0KiB subtitle:0KiB other streams:0KiB global headers:0KiB muxing overhead: 0.491167%\nframe=  300 fps= 64 q=-1.0 Lsize=     889KiB time=00:00:04.96 bitrate=1465.5kbits/s speed=1.06x elapsed=0:00:04.67    \n[libx264 @ 000002284a360980] frame I:2     Avg QP:28.26  size: 14733\n[libx264 @ 000002284a360980] frame P:75    Avg QP:28.86  size:  5707\n[libx264 @ 000002284a360980] frame B:223   Avg QP:30.40  size:  2005\n[libx264 @ 000002284a360980] consecutive B-frames:  0.7%  0.0%  2.0% 97.3%\n[libx264 @ 000002284a360980] mb I  I16..4: 43.6% 55.3%  1.1%\n[libx264 @ 000002284a360980] mb P  I16..4:  5.9% 11.7%  0.1%  P16..4: 13.0%  1.0%  0.4%  0.0%  0.0%    skip:68.0%\n[libx264 @ 000002284a360980] mb B  I16..4:  0.4%  0.5%  0.0%  B16..8: 14.8%  0.5%  0.0%  direct: 0.9%  skip:82.9%  L0:43.0% L1:56.5% BI: 0.5%\n[libx264 @ 000002284a360980] 8x8 transform intra:63.5% inter:94.0%\n[libx264 @ 000002284a360980] direct mvs  spatial:95.5% temporal:4.5%\n[libx264 @ 000002284a360980] coded y,uvDC,uvAC intra: 7.5% 15.9% 0.3% inter: 0.4% 1.8% 0.0%\n[libx264 @ 000002284a360980] i16 v,h,dc,p: 36% 39% 11% 13%\n[libx264 @ 000002284a360980] i8 v,h,dc,ddl,ddr,vr,hd,vl,hu: 12%  9% 62%  2%  4%  4%  3%  3%  2%\n[libx264 @ 000002284a360980] i4 v,h,dc,ddl,ddr,vr,hd,vl,hu: 21% 13% 26%  7% 10%  7%  7%  5%  4%\n[libx264 @ 000002284a360980] i8c dc,h,v,p: 72% 14% 13%  1%\n[libx264 @ 000002284a360980] Weighted P-Frames: Y:0.0% UV:0.0%\n[libx264 @ 000002284a360980] ref P L0: 50.8% 12.9% 24.5%  6.1%  5.7%\n[libx264 @ 000002284a360980] ref B L0: 72.7% 20.7%  5.7%  0.9%\n[libx264 @ 000002284a360980] ref B L1: 90.9%  9.1%\n[libx264 @ 000002284a360980] kb/s:1447.41\n",
  "seconds": 4.990325450897217,
  "probe_out": {}
}